<?xml version="1.0" encoding="UTF-8"?>
<svg id="_图层_1" data-name="图层_1" xmlns="http://www.w3.org/2000/svg" version="1.1" viewBox="0 0 1995 1989">
  <!-- Generator: Adobe Illustrator 30.2.1, SVG Export Plug-In . SVG Version: 2.1.1 Build 1)  -->
  <defs>
    <style>
      .st0 {
        stroke-width: 1.13px;
      }

      .st0, .st1, .st2, .st3, .st4, .st5, .st6, .st7, .st8, .st9, .st10, .st11, .st12, .st13, .st14, .st15, .st16, .st17, .st18, .st19, .st20, .st21, .st22, .st23, .st24, .st25, .st26, .st27, .st28, .st29, .st30, .st31, .st32, .st33, .st34, .st35, .st36, .st37, .st38, .st39, .st40, .st41, .st42, .st43, .st44, .st45, .st46, .st47, .st48, .st49, .st50, .st51, .st52, .st53, .st54, .st55, .st56, .st57, .st58, .st59, .st60, .st61, .st62, .st63, .st64, .st65, .st66, .st67, .st68, .st69, .st70, .st71, .st72, .st73, .st74, .st75, .st76, .st77 {
        fill: none;
        stroke-linecap: round;
      }

      .st0, .st2, .st3, .st4, .st6, .st8, .st10, .st11, .st14, .st16, .st19, .st20, .st21, .st24, .st25, .st30, .st37, .st42, .st43, .st53, .st57, .st58, .st60, .st61, .st66, .st67, .st68, .st73, .st76 {
        stroke: #6587a2;
      }

      .st1, .st7, .st9, .st13, .st15, .st17, .st18, .st22, .st23, .st28, .st31, .st32, .st34, .st36, .st38, .st44, .st45, .st46, .st47, .st48, .st49, .st51, .st52, .st54, .st55, .st59, .st62, .st64, .st69, .st70, .st72, .st74, .st75 {
        stroke: #b0d4e8;
      }

      .st1, .st11, .st50 {
        stroke-width: 1.03px;
      }

      .st78, .st79, .st80, .st81, .st82, .st83, .st84, .st85, .st86, .st87, .st88, .st89, .st90, .st91 {
        fill: #b0d4e8;
        stroke: #7b94a2;
      }

      .st78, .st92 {
        stroke-width: 2.67px;
      }

      .st79 {
        stroke-width: 3.73px;
      }

      .st2 {
        stroke-width: 1.32px;
      }

      .st3, .st17, .st77 {
        stroke-width: 1.51px;
      }

      .st4, .st41, .st51 {
        stroke-width: 1.37px;
      }

      .st5, .st12, .st26, .st27, .st29, .st33, .st35, .st39, .st40, .st41, .st50, .st56, .st63, .st65, .st71, .st77 {
        stroke: #1b3a5c;
      }

      .st5, .st28, .st58 {
        stroke-width: 1.15px;
      }

      .st6 {
        stroke-width: 1.75px;
      }

      .st7, .st21, .st40 {
        stroke-width: 1.24px;
      }

      .st8, .st26, .st59 {
        stroke-width: 1.05px;
      }

      .st9, .st14 {
        stroke-width: 1.11px;
      }

      .st10, .st46 {
        stroke-width: 1.11px;
      }

      .st92, .st93, .st94, .st95, .st96, .st97, .st98, .st99, .st100 {
        fill: #1b3a5c;
        stroke: #122840;
      }

      .st12, .st15, .st30 {
        stroke-width: 1.39px;
      }

      .st13, .st57 {
        stroke-width: 1.24px;
      }

      .st16 {
        stroke-width: 1.36px;
      }

      .st101 {
        font-family: TimesNewRomanPS-BoldMT, 'Times New Roman';
        font-size: 48px;
        font-weight: 700;
        isolation: isolate;
      }

      .st18, .st19 {
        stroke-width: 1.01px;
      }

      .st20 {
        stroke-width: 1.09px;
      }

      .st80, .st94 {
        stroke-width: 5.51px;
      }

      .st22, .st53 {
        stroke-width: 1.63px;
      }

      .st81, .st98 {
        stroke-width: 3.02px;
      }

      .st23, .st67 {
        stroke-width: 1.31px;
      }

      .st24, .st29 {
        stroke-width: 1.14px;
      }

      .st82 {
        stroke-width: 5.87px;
      }

      .st25, .st48 {
        stroke-width: 1.38px;
      }

      .st27 {
        stroke-width: 1.2px;
      }

      .st31 {
        stroke-width: 1.2px;
      }

      .st32 {
        stroke-width: 1.48px;
      }

      .st33 {
        stroke-width: 1.72px;
      }

      .st34 {
        stroke-width: 1.19px;
      }

      .st35 {
        stroke-width: 1.85px;
      }

      .st93 {
        stroke-width: 8px;
      }

      .st36 {
        stroke-width: 1.45px;
      }

      .st37, .st70 {
        stroke-width: 1.73px;
      }

      .st38 {
        stroke-width: 1.42px;
      }

      .st39 {
        stroke-width: 1.3px;
      }

      .st95 {
        stroke-width: 6.93px;
      }

      .st42, .st69 {
        stroke-width: 1.76px;
      }

      .st43, .st56, .st72 {
        stroke-width: 1.88px;
      }

      .st83, .st97 {
        stroke-width: 6.22px;
      }

      .st44 {
        stroke-width: 1.06px;
      }

      .st45, .st61 {
        stroke-width: 1.27px;
      }

      .st47 {
        stroke-width: 2px;
      }

      .st49 {
        stroke-width: 1.66px;
      }

      .st96, .st87 {
        stroke-width: 5.16px;
      }

      .st84 {
        stroke-width: 2.31px;
      }

      .st52, .st66 {
        stroke-width: 1.04px;
      }

      .st54, .st60, .st65 {
        stroke-width: 1.26px;
      }

      .st85 {
        stroke-width: 1.6px;
      }

      .st55 {
        stroke-width: 1.44px;
      }

      .st86 {
        stroke-width: 3.38px;
      }

      .st62 {
        stroke-width: 1.15px;
      }

      .st63 {
        stroke-width: 1.49px;
      }

      .st64, .st68 {
        stroke-width: 1.05px;
      }

      .st88 {
        stroke-width: 4.8px;
      }

      .st99, .st91 {
        stroke-width: 4.44px;
      }

      .st89 {
        stroke-width: 1.96px;
      }

      .st100 {
        stroke-width: 6.58px;
      }

      .st90 {
        stroke-width: 4.09px;
      }

      .st71 {
        stroke-width: 1.42px;
      }

      .st73 {
        stroke-width: 1.88px;
      }

      .st74 {
        stroke-width: 1.54px;
      }

      .st76 {
        stroke-width: 1.51px;
      }
    </style>
  </defs>
  <g id="edges">
    <path class="st45" d="M910.48,1969.84c45.01-31.75,104.07-35.43,152.67-9.52"/>
    <path class="st28" d="M910.01,1969.26c88.02-73.54,211.83-86.43,313.11-32.59"/>
    <path class="st24" d="M1315.62,1110.45c37.38-69.51,109.2-113.6,188.1-115.46"/>
    <path class="st0" d="M1270.84,1157.19c-124.3,54.16-268.3,35.76-374.99-47.92"/>
    <path class="st66" d="M1269.39,1153.81c-61.37,16.74-127.04,3.96-177.66-34.57"/>
    <path class="st54" d="M1311.74,1174.94c11.99,58.92-5.54,119.98-46.96,163.56"/>
    <path class="st54" d="M1277.11,1166.05c-79.66,69.29-190.06,91.18-290.13,57.52"/>
    <path class="st48" d="M1280.71,1114.7c-54.69-81.31-60.26-186.11-14.49-272.76"/>
    <path class="st19" d="M1267.32,1143.13c-103.17-2.46-197.9-57.57-251.02-146.06"/>
    <path class="st20" d="M1270.65,1127.15c-33.43-20.97-57.23-54.3-66.22-92.73"/>
    <path class="st54" d="M1296.96,1107.86c-9.27-111.94,43.98-219.85,138.46-280.59"/>
    <path class="st64" d="M1276.48,1165.39c-141.36,121.55-341.95,146.16-508.5,62.39"/>
    <path class="st48" d="M1282.81,1170.75c-21.59,24.64-51.95,39.86-84.61,42.43"/>
    <path class="st18" d="M1291.67,1174.91c-32.56,85.62-107.95,147.64-198.23,163.1"/>
    <path class="st61" d="M876.19,319.22c44.74-21.31,96.97-19.92,140.52,3.73"/>
    <path class="st1" d="M875.45,317.99c94.9-58.08,214.64-56.86,308.34,3.14"/>
    <path class="st1" d="M847.13,342.49c-113.81,122.32-291.67,160.99-445.99,96.95"/>
    <path class="st11" d="M875.49,338.69c35.65,26.91,56.14,69.36,55.01,114.02"/>
    <path class="st11" d="M875.73,338.31c91.91,61.12,141.21,169.07,127.23,278.56"/>
    <path class="st11" d="M567.67,468.4c107.77-130.05,282.43-183.73,444.64-136.67"/>
    <path class="st15" d="M544.23,498.03c-57.85,67.24-149.77,94.26-234.81,69.02"/>
    <path class="st45" d="M555.56,464.32c2.21-59.8,36.52-113.76,89.74-141.13"/>
    <path class="st42" d="M571.3,472.22c99.99-67,229.76-69.89,332.64-7.42"/>
    <path class="st22" d="M570.25,470.87c41.94-31.95,97.15-40.67,146.89-23.19"/>
    <path class="st23" d="M410.3,1768.41c-122.16-75.58-185.52-218.29-159.65-359.59"/>
    <path class="st55" d="M438.27,1763.03c38.06-43.1,96.47-62.21,152.65-49.94"/>
    <path class="st62" d="M445.37,1775.55c108.95-9.87,213.1,46.97,263.73,143.95"/>
    <path class="st55" d="M436.95,1762.09c151.39-224.77,428.36-329.25,690.48-260.45"/>
    <path class="st44" d="M407.9,1775.46c-115.25-18.95-207.49-105.92-233.16-219.87"/>
    <path class="st2" d="M1399.32,1307.87c-113.05-45.54-190.14-151.68-198.49-273.27"/>
    <path class="st47" d="M1414.26,1323.92c15.46,59.71-5.02,122.97-52.55,162.28"/>
    <path class="st58" d="M553.75,1249.05c-132.09-37.25-228.57-150.63-244.19-286.98"/>
    <path class="st77" d="M586.28,1256.24c53.67,13.09,95.97,54.34,110.41,107.66"/>
    <path class="st19" d="M573.03,1269.55c5.74,45.37-12.42,90.47-48,119.2"/>
    <path class="st12" d="M586.55,1253.84c228.95,12.52,425.62,166.9,492.14,386.33"/>
    <path class="st22" d="M807.52,963.67c-16.22,45.14-51.24,81.02-95.97,98.34"/>
    <path class="st15" d="M796.19,892.48c-41.72-82.86-35-181.86,17.52-258.32"/>
    <path class="st45" d="M829.31,889.13c50.65-120.83,164.32-203.45,294.89-214.32"/>
    <path class="st6" d="M844.02,953.03c18.52,24.39,28.19,54.35,27.41,84.96"/>
    <path class="st37" d="M855.16,926.88c80.2,8.64,151.1,55.96,189.86,126.71"/>
    <path class="st69" d="M849.28,946.35c70.92,51.93,110.97,136.05,106.56,223.85"/>
    <path class="st73" d="M852.6,911.86c33.94-8.16,69.67-4.21,101.02,11.16"/>
    <path class="st45" d="M846.01,950.85c134.1,122.89,185.55,311.96,132.2,485.85"/>
    <path class="st61" d="M777.4,926.67c-75.07-4.52-143.41-44.81-183.71-108.31"/>
    <path class="st28" d="M798.89,960.56c-56.26,96.34-161.3,153.55-272.76,148.54"/>
    <path class="st4" d="M851.96,910.3c108.49-39.54,229.8-18.6,318.75,55.02"/>
    <path class="st30" d="M841.5,896.17c60.34-60.8,147.07-87.41,231.13-70.92"/>
    <path class="st28" d="M855.01,929.3c141.4,20.23,259.32,118.44,304.8,253.86"/>
    <path class="st28" d="M784.85,902.88c-33.24-31.66-49.97-76.92-45.3-122.58"/>
    <path class="st45" d="M1291.85,179.56c113.32,5.48,212.4,78.17,251.66,184.61"/>
    <path class="st17" d="M1290,172.77c86.5-51.02,194.96-46.15,276.55,12.41"/>
    <path class="st58" d="M1258.49,1634.44c-42.36,39.22-103.14,51.39-157.34,31.48"/>
    <path class="st28" d="M24.07,1184.95c-93.38-150.17-81.19-343.05,30.34-480.27"/>
    <path class="st61" d="M1074.48,324.9c34.19-15.05,73.06-15.38,107.5-.91"/>
    <path class="st30" d="M1068.7,317.69c93.62-88.72,230.3-114.87,350.06-66.97"/>
    <path class="st50" d="M1079.38,341.14c205.26-2.01,391.39,120.2,471.14,309.34"/>
    <path class="st11" d="M1079,337.34c145.78-16.01,287.74,53.44,364.57,178.37"/>
    <path class="st53" d="M1079.05,347.61c82.09,17.9,149.3,76.57,178.12,155.48"/>
    <path class="st3" d="M1071.97,364.03c27.37,27.79,41.88,65.75,40.04,104.7"/>
    <path class="st30" d="M1076.83,329.58c90.23-30.33,189.79-9.97,260.86,53.36"/>
    <path class="st77" d="M1038.82,376.55c-12.95,42.81-44.21,77.69-85.36,95.22"/>
    <path class="st77" d="M1059.06,374.08c31.42,84.82,16.12,179.9-40.31,250.59"/>
    <path class="st58" d="M1024.85,370.62c-61.81,75.31-159.37,111.51-255.34,94.74"/>
    <path class="st28" d="M265.22,1398.16c164.98,20.45,299.87,141.3,338.26,303.05"/>
    <path class="st1" d="M671.16,1039.83c-39.39-151.91,15.27-312.69,139.07-409.13"/>
    <path class="st25" d="M709.04,1055.68c37.88-15.03,80.19-14.3,117.52,2.05"/>
    <path class="st10" d="M708.17,1054.12c101.28-53.82,223.68-48.95,320.37,12.74"/>
    <path class="st15" d="M712.55,1067.2c86.61-3.81,169.14,36.97,218.73,108.07"/>
    <path class="st3" d="M699.34,1044.51c59.47-73.29,151.91-111.61,245.8-101.88"/>
    <path class="st58" d="M654.66,1051.44c-66.66-56.4-100.02-142.85-88.52-229.4"/>
    <path class="st22" d="M656.76,1092.44c-37.97,27.91-86.88,36.26-131.96,22.54"/>
    <path class="st30" d="M695,1041.88c75.26-135.94,221.19-217.34,376.4-209.96"/>
    <path class="st1" d="M648.31,1071.73c-68.01-3.17-129.85-40.38-164.52-98.97"/>
    <path class="st28" d="M648.82,1064.85c-127.33-29.73-225.88-130.58-252.68-258.56"/>
    <path class="st1" d="M212.89,404.4c112.74,16.95,204.42,99.65,232.84,210.06"/>
    <path class="st28" d="M304.67,924.65c-15.3-108.51,33.81-216.04,125.84-275.54"/>
    <path class="st15" d="M320.63,957.24c31.72,39.98,39.57,93.9,20.57,141.27"/>
    <path class="st11" d="M315.63,926.01c41.25-84.09,124.56-139.49,218.06-144.99"/>
    <path class="st28" d="M306.42,924.43c-.84-51.89,25.63-100.42,69.72-127.81"/>
    <path class="st45" d="M838.56,613.41c97.41-44.11,211.46-28.65,293.63,39.78"/>
    <path class="st45" d="M824.68,637.37c.23,48.85-25.54,94.15-67.65,118.91"/>
    <path class="st15" d="M1755.13,665.99c40.85,32.3,60.23,84.71,50.22,135.81"/>
    <path class="st1" d="M1733.3,661.56c-100.15,20.34-202.97-19.62-263.09-102.26"/>
    <path class="st48" d="M322.89,266.66C435.32,70.47,660.67-31.77,882.35,12.82"/>
    <path class="st11" d="M1787.44,816.81c-93.47,3.62-180.4-47.86-222.15-131.56"/>
    <path class="st15" d="M1787.42,815.05c-149.17-10.87-277.09-110.59-324.03-252.6"/>
    <path class="st28" d="M1181.93,685c176.55,79.12,286.95,257.95,278.57,451.23"/>
    <path class="st15" d="M1180.23,658.73c49.14-22.52,106.09-20.11,153.15,6.47"/>
    <path class="st58" d="M1156.16,703.54c.92,89.99-43.44,174.42-118.06,224.72"/>
    <path class="st30" d="M1133.22,695.08c-138.41,133.44-341.95,173.85-520.84,103.42"/>
    <path class="st1" d="M1163.98,645.25c58.83-151.88,202.23-254.32,364.98-260.73"/>
    <path class="st1" d="M1133.36,652c-156.52-171.49-190.34-422.05-84.89-628.91"/>
    <path class="st58" d="M1162.19,702.52c6.09,36.99-2.93,74.89-25.02,105.18"/>
    <path class="st1" d="M1133.63,695.47c-99.5,97.21-246.97,126.58-376.13,74.92"/>
    <path class="st28" d="M829.42,1829.35c-84.34,12.68-168.23-25.52-214.03-97.46"/>
    <path class="st30" d="M845.57,1815.69c35.3-91.43,121.48-153.2,219.4-157.29"/>
    <path class="st28" d="M1084.9,1956.72c73.66-82.21,189.45-112.2,293.75-76.1"/>
    <path class="st1" d="M1086.31,1958.1c38.4-30.89,90.48-38.65,136.22-20.31"/>
    <path class="st28" d="M1238.07,341.28c96.55,14.27,177.46,80.42,210.63,172.21"/>
    <path class="st45" d="M1230.61,358.52c36.43,38.61,52.96,91.9,44.78,144.35"/>
    <path class="st17" d="M1207.75,368.58c-5.31,48.05-32.4,90.99-73.48,116.48"/>
    <path class="st1" d="M1225.47,314.06c79.35-102.46,210.85-149.7,337.26-121.17"/>
    <path class="st15" d="M1237.95,334.76c39.34-.66,77.02,15.84,103.22,45.21"/>
    <path class="st15" d="M1237.51,332.24c153.83-27.19,309.11,39.6,395.17,169.96"/>
    <path class="st58" d="M1208.12,368.58c-5.85,116.05-75.61,219.27-181.1,267.98"/>
    <path class="st28" d="M1188.6,361.31c-106.9,115.03-271.11,157.06-420.13,107.54"/>
    <path class="st28" d="M1787.5,1560.21c-123.21-86.33-181.05-239.25-145.83-385.5"/>
    <path class="st17" d="M1789.03,1558.36c-57.02-61.13-72.37-150.24-39.09-226.92"/>
    <path class="st15" d="M1448.88,1141.03c-119.36-110.51-160.11-282.19-103.14-434.55"/>
    <path class="st11" d="M1450.97,1162.2c-172.16,223.83-467.47,313.63-735.09,223.52"/>
    <path class="st13" d="M1812.39,1133.6c1.2-101.76,62.05-193.34,155.4-233.87"/>
    <path class="st28" d="M1804.3,1178.51c-35.98,76.07-111.55,125.56-195.66,128.13"/>
    <path class="st28" d="M1817.5,1179.85c17,114.75-35.06,228.77-132.92,291.07"/>
    <path class="st15" d="M1793.2,1168.99c-40.7,20.11-88.67,18.97-128.37-3.04"/>
    <path class="st74" d="M1836.4,1159.11c47.52,8.53,87.25,41.03,105.03,85.92"/>
    <path class="st1" d="M1818.31,1179.68c6.95,49.22-12.2,98.5-50.57,130.11"/>
    <path class="st17" d="M1830.59,1172.45c60.09,59.45,81.77,147.58,56.12,228.12"/>
    <path class="st36" d="M1533.34,1632.48c38.61,44.45,48.2,107.14,24.65,161.1"/>
    <path class="st47" d="M1536.94,1621.16c52.97-8.3,106.05,14.22,136.9,58.07"/>
    <path class="st28" d="M1620.54,816.18c-100.16-44.24-164.95-143.23-165.4-252.73"/>
    <path class="st11" d="M1622.15,828.34c-139.62,104.75-328.34,115.89-479.31,28.28"/>
    <path class="st60" d="M849.49,1330.71c-38.3-65.14-41.53-145.1-8.62-213.12"/>
    <path class="st16" d="M865.02,1326.45c9.65-96.56,69.85-180.73,158.1-221.06"/>
    <path class="st48" d="M844.7,1369.09c-89.43,73.99-213.71,89.27-318.4,39.14"/>
    <path class="st11" d="M856.33,1327.5c-32.34-124.08,5.67-255.91,99.1-343.72"/>
    <path class="st15" d="M887.96,1359.91c32.9,14.43,58.44,41.72,70.64,75.51"/>
    <path class="st17" d="M851.13,1329.71c-89.25-169-67.39-375.21,55.33-521.74"/>
    <path class="st7" d="M871.18,1376.4c29.56,113.25-9.88,233.31-100.83,306.97"/>
    <path class="st28" d="M884.47,1337.13c46.29-27.95,103.25-31.74,152.83-10.17"/>
    <path class="st45" d="M620.2,929.43c-154.12,18.71-303.5-60.9-373.92-199.27"/>
    <path class="st28" d="M641.81,935.45c170.24,141.31,232.42,374.87,154.95,582.11"/>
    <path class="st1" d="M176.3,852.19c34.18-114.4,132.62-197.87,251.07-212.88"/>
    <path class="st61" d="M183.21,855.98c90.99-94.88,228.18-129.47,353.29-89.08"/>
    <path class="st69" d="M187.62,862.55c93.52-30.87,196.46-5.84,265.36,64.52"/>
    <path class="st23" d="M168.7,884.63c-17,68.52-71.97,121.11-141.18,135.06"/>
    <path class="st34" d="M666.89,609.77c278.53-44.93,554.96,91.49,688.74,339.88"/>
    <path class="st34" d="M638.29,597.02c-47.9-83.77-42.91-187.7,12.79-266.5"/>
    <path class="st34" d="M641.75,595.32c-48.15-141.66-4.77-298.35,109.37-395.08"/>
    <path class="st67" d="M657.66,596.65c51.37-82.64,144.96-129.23,241.86-120.4"/>
    <path class="st44" d="M647.69,594.16c1.56-49.88,27.78-95.74,69.98-122.39"/>
    <path class="st17" d="M1975.07,1081.39c-54.98.13-105.1-31.49-128.65-81.18"/>
    <path class="st15" d="M1433.24,270.78c5.78,102.36-46.72,199.2-135.65,250.22"/>
    <path class="st15" d="M1433.75,270.73c2.98,45.37-16.79,89.25-52.74,117.07"/>
    <path class="st15" d="M1384.41,1900.02c-31.7,38.39-81.48,56.93-130.57,48.65"/>
    <path class="st17" d="M1377.67,1888.46c-65.21,4.34-127.37-28.14-161.05-84.14"/>
    <path class="st54" d="M1384.83,1872.79c-25.62-42.87-26.06-96.25-1.13-139.54"/>
    <path class="st28" d="M558.03,1865.58c-52.32-109.42-31.37-239.82,52.6-327.34"/>
    <path class="st50" d="M1506.12,1003.85c-148.16,85.63-332.54,77.57-472.67-20.65"/>
    <path class="st3" d="M1507.19,985.07c-41.71-35.73-62.16-90.37-54.16-144.7"/>
    <path class="st5" d="M1504.24,999.36c-139.05,32.13-284.11-19.3-371.88-131.84"/>
    <path class="st1" d="M1120.88,176.49c110.7,68.99,170.41,196.7,152.35,325.89"/>
    <path class="st36" d="M1555.52,1792.7c15.11-52.62,58.88-92.03,112.79-101.56"/>
    <path class="st17" d="M459.18,658.97c56.83,156.96,12.01,332.7-113.05,443.28"/>
    <path class="st42" d="M472.96,643.97c44.26,16.9,78.67,52.67,93.83,97.56"/>
    <path class="st1" d="M465.01,655.63c56.18,78.67,63.96,182.05,20.19,268.25"/>
    <path class="st17" d="M455.01,660.19c4.55,44.17-13.03,87.73-46.97,116.37"/>
    <path class="st11" d="M335.23,1097.18c3.59-130.61,81.77-247.59,201.08-300.87"/>
    <path class="st1" d="M131.38,560.07c116.97,138.08,135.25,334.52,45.78,491.82"/>
    <path class="st28" d="M122.81,534.79c14.69-175.84,138.39-323.44,308.96-368.63"/>
    <path class="st28" d="M125.76,563.11c27.02,107.12-13.79,219.91-103.1,284.95"/>
    <path class="st58" d="M1347.59,707.17c-48.77,130.43-165.46,223.38-303.49,241.75"/>
    <path class="st69" d="M1355.86,653.04c3.31-113.27,71.17-214.65,174.63-260.88"/>
    <path class="st14" d="M1360.06,708.34c8.96,103.92-38.36,204.69-124.05,264.15"/>
    <path class="st22" d="M1382.3,690.74c37.7,18.91,64.85,53.82,73.91,95.01"/>
    <path class="st1" d="M1368.79,655.97c82.31-151.73,249.13-237.57,420.43-216.36"/>
    <path class="st61" d="M1344.95,706.14c-38.63,74.07-112.67,123.02-195.95,129.56"/>
    <path class="st58" d="M1332.08,694.32c-100.02,49.74-219.38,39.91-309.91-25.52"/>
    <path class="st28" d="M305.81,554.01c102.93-115.13,265.23-156.64,410.8-105.06"/>
    <path class="st13" d="M250.33,726.98c154.1,131.24,209.16,345.12,137.6,534.46"/>
    <path class="st71" d="M704.67,1364.16c43.85-143.74,167.19-248.93,316.05-269.53"/>
    <path class="st25" d="M687.33,1390.84c-46.53,34.66-108.2,41.35-161.08,17.48"/>
    <path class="st33" d="M902.24,1061.38c41.01-13.93,85.85-11.23,124.89,7.52"/>
    <path class="st24" d="M906.7,1082.1c148.75,13.5,276.96,110.21,330.8,249.53"/>
    <path class="st43" d="M901.5,1101.19c22.24,17.41,38.17,41.61,45.36,68.92"/>
    <path class="st56" d="M875.94,1039.09c14.62-31.37,39.46-56.85,70.46-72.26"/>
    <path class="st76" d="M895.55,1109.62c84.06,86.38,115.53,211.1,82.51,327.02"/>
    <path class="st65" d="M821.12,1071.04c-118.18-34.55-209.11-129.28-238.8-248.77"/>
    <path class="st63" d="M892.91,1048.84c72.21-66.84,173.37-92.54,268.73-68.29"/>
    <path class="st29" d="M872.86,1038.29c28.79-94.66,103.89-168.09,199.18-194.73"/>
    <path class="st68" d="M855.98,1123.27c-13.85,41.97-45.72,75.56-86.9,91.59"/>
    <path class="st19" d="M821.45,1091.48c-125.04,24.25-253.26-22.38-333.51-121.28"/>
    <path class="st60" d="M906.18,1073.75c96-7.67,189.08,35.14,245.73,113.02"/>
    <path class="st60" d="M904.07,1095.5c86.45,39.73,146.1,121.47,157.57,215.92"/>
    <path class="st11" d="M1539.69,661.82c-41.39-17.65-71.51-54.45-80.64-98.51"/>
    <path class="st11" d="M1539.28,672.87c-155.79,37.46-318.93-21.45-414.84-149.81"/>
    <path class="st58" d="M1558.02,686.9c-.72,118.6-72.55,225.18-182.2,270.37"/>
    <path class="st37" d="M1050.93,1130.85c-12.7,28.59-34.97,51.86-62.97,65.81"/>
    <path class="st35" d="M1028.61,1066.76c-17.39-17.76-29.27-40.18-34.2-64.55"/>
    <path class="st37" d="M1075.18,1130c31.31,112.61.07,233.36-81.92,316.66"/>
    <path class="st26" d="M1020.61,1092.6c-183.59-1.47-350.3-107.38-429.65-272.95"/>
    <path class="st27" d="M1079.96,1054.34c19.12-27.59,47.43-47.49,79.87-56.14"/>
    <path class="st8" d="M1076.5,1052.82c62.91-141.13,200.75-234.07,355.17-239.46"/>
    <path class="st39" d="M1047.16,1052.71c-17.75-65.09-4.19-134.73,36.7-188.4"/>
    <path class="st10" d="M1100.19,1105.58c29.82,16.76,52.11,44.27,62.33,76.91"/>
    <path class="st57" d="M1083.27,1126.16c29.35,60.19,28,130.81-3.61,189.83"/>
    <path class="st17" d="M1009.66,1813.38c-121.02-35.58-207.5-142.18-217.36-267.94"/>
    <path class="st1" d="M182.84,1070.53c198.58,98.01,313.01,311.3,284.84,530.95"/>
    <path class="st28" d="M156.08,1059.83c-81.89-29.84-138.16-105.56-143.1-192.58"/>
    <path class="st69" d="M600.57,102.26C713.05-19.89,890.28-57.94,1042.98,7.29"/>
    <path class="st18" d="M526.42,1391.1c136.56-64.05,297.94-42.49,412.9,55.16"/>
    <path class="st54" d="M508.9,1380.66c-4.51-256.83,151.6-489.23,391.06-582.17"/>
    <path class="st15" d="M1433.62,549.87c-99.14,47.07-216.28,34.69-303.39-32.05"/>
    <path class="st58" d="M1433.86,550.31c-157.74,81.59-348.94,61.25-485.97-51.71"/>
    <path class="st28" d="M1220.61,1359.19c-98.21,8.67-193.53-35.97-249.74-116.96"/>
    <path class="st17" d="M1232.43,1334.06c-90.81-155.71-78.51-350.86,31.15-493.93"/>
    <path class="st28" d="M1231.79,1377.04c-53.24,71.95-140.61,110.3-229.6,100.8"/>
    <path class="st14" d="M1228.97,1336.64c-70.08-85.99-87.8-203.31-46.25-306.17"/>
    <path class="st44" d="M1221.88,1364.39c-165.23,53.78-346.57,1.78-458.2-131.39"/>
    <path class="st45" d="M1223.83,1342.93c-33-23.55-53.8-60.57-56.74-101"/>
    <path class="st49" d="M388.08,1292.35c49.71,130.47,14.11,278.07-89.62,371.52"/>
    <path class="st31" d="M366.32,1283.18c-55.71,19.18-117.46,5.4-159.74-35.63"/>
    <path class="st13" d="M398.39,1275.8c166.94-7.84,321.29,88.48,387.63,241.87"/>
    <path class="st73" d="M936.34,1172.77c-18.84-61.54-9.37-128.28,25.86-182.15"/>
    <path class="st22" d="M973.36,1240.61c35.02,60.71,38.89,134.51,10.41,198.56"/>
    <path class="st61" d="M913.29,1199.31c-174.09-51.38-303.57-197.63-333.49-376.66"/>
    <path class="st4" d="M962,1171.48c32.56-87.22,107.08-152.01,197.97-172.13"/>
    <path class="st58" d="M943.94,1170.54c-15.25-120.98,35.83-240.79,133.68-313.55"/>
    <path class="st1" d="M912.33,1212.77c-177.5,10.66-344.95-83.07-428.68-239.94"/>
    <path class="st22" d="M984.73,1189.42c50.92-22.36,109.3-20.07,158.32,6.21"/>
    <path class="st45" d="M987.44,1222.4c35,18.77,60.76,51.07,71.27,89.36"/>
    <path class="st1" d="M1264.29,806.68c-48.07-71.7-53.88-163.7-15.21-240.88"/>
    <path class="st4" d="M1280.05,844.54c3.98,46.33-13.04,92.01-46.38,124.43"/>
    <path class="st17" d="M1283.84,843.59c39.59,124.47,3.45,260.6-92.66,349.05"/>
    <path class="st28" d="M1282.2,803.27c45.47-155.32,180.63-267.52,341.67-283.63"/>
    <path class="st3" d="M1019.56,995.31c73.45,143.19,61.47,315.29-31.11,446.92"/>
    <path class="st12" d="M945.12,961.72c-133.47,16.78-265.78-38.79-347.25-145.85"/>
    <path class="st11" d="M962.83,991.14c-110.26,121.48-280.3,169.17-437.65,122.75"/>
    <path class="st41" d="M1041.93,937.28c44.78-7.24,90.63,3.15,127.92,28.99"/>
    <path class="st11" d="M1026.38,913.94c104.42-109.68,261.35-151.86,406.69-109.32"/>
    <path class="st77" d="M1010.05,904.79c14.18-25.59,36.17-45.96,62.76-58.15"/>
    <path class="st58" d="M952.33,979.53c-143.37,82.19-320.89,76.2-458.4-15.45"/>
    <path class="st61" d="M1039.59,973.2c74.94,43.83,123.12,122.1,128.5,208.75"/>
    <path class="st11" d="M1028.07,989c72.67,92.08,90.88,215.86,47.82,324.98"/>
    <path class="st59" d="M1416.22,107.93c1.51,302.34-187.72,572.8-472.26,675.01"/>
    <path class="st52" d="M1432.39,93.93c233.96,41.57,415.76,227.04,452.64,461.79"/>
    <path class="st32" d="M1401.62,99.79c-209.97,120.84-473.51,94.99-656-64.34"/>
    <path class="st46" d="M1399.66,94.82c-62.61,10.43-125.71-15.63-162.71-67.2"/>
    <path class="st13" d="M1975.71,906.87c-42.35,137.34-164.16,234.98-307.42,246.42"/>
    <path class="st1" d="M943.16,1442.71c-138.47-184.48-151.76-434.33-33.65-632.45"/>
    <path class="st28" d="M969.24,1434.77c14.81-96.41,79.74-177.67,170.51-213.38"/>
    <path class="st51" d="M959.42,1507.36c-23.65,90.49-95.1,160.69-185.99,182.75"/>
    <path class="st22" d="M971.08,1434.98c9.74-34.95,33.1-64.52,64.84-82.09"/>
    <path class="st28" d="M977.22,1506.25c9.9,51.22-6.25,104.02-43.12,140.94"/>
    <path class="st30" d="M589.22,820.35c28.23,96.61,1.92,200.93-68.75,272.61"/>
    <path class="st3" d="M573.15,822.93c-7.9,47.03-35.99,88.25-76.88,112.79"/>
    <path class="st3" d="M539.53,802.98c-42.13,18-90.14,16.01-130.63-5.42"/>
    <path class="st58" d="M608.64,758.52c37.28-18.31,80.76-19.17,118.73-2.33"/>
    <path class="st28" d="M1605.85,1316.31c47.31,33.11,72.96,89.26,67.02,146.7"/>
    <path class="st1" d="M1585.77,1287.95c-6.51-45.25,10.25-90.73,44.55-120.95"/>
    <path class="st46" d="M1603.64,1293.61c91.41-79.13,221.43-95.55,329.64-41.64"/>
    <path class="st45" d="M1608.11,1301.94c99.37-20.45,201.54,18.91,261.51,100.74"/>
    <path class="st17" d="M615.94,1703.44c111.14-168.04,315.53-248.59,511.43-201.56"/>
    <path class="st15" d="M1558.41,403.63c53.28,134.33,22.41,287.45-78.77,390.63"/>
    <path class="st28" d="M1541.84,364.79c-17.88-51.65-7.69-108.88,26.91-151.2"/>
    <path class="st1" d="M1569.51,392.46c40.69,21.08,68,61.27,72.61,106.87"/>
    <path class="st1" d="M519.82,314.44c215.36,51.66,375.27,232.7,399.97,452.78"/>
    <path class="st45" d="M1233.62,545.84c-37.06,5.88-74.9-3.77-104.62-26.66"/>
    <path class="st21" d="M1281.84,567.13c57.3,131.62,36.62,284.2-53.65,395.81"/>
    <path class="st1" d="M1271.96,502.16c29.78-148.19,143.34-265.35,290.53-299.73"/>
    <path class="st11" d="M1270.15,570.47c3.87,98.43-43.98,191.73-126.18,246.01"/>
    <path class="st69" d="M1269.48,501.87c7.79-36.7,30.54-68.48,62.76-87.69"/>
    <path class="st15" d="M1294.39,515.73c100.22-65.87,229.23-68.84,332.37-7.64"/>
    <path class="st58" d="M1247.15,564.56c-52.41,65.61-134.95,99.56-218.36,89.83"/>
    <path class="st38" d="M352.65,1501.46c-105.29,19.65-211.75-27.91-267.36-119.45"/>
    <path class="st28" d="M1134.28,511.67c158.38,85.07,249.3,257.72,229.85,436.45"/>
    <path class="st1" d="M1125.02,474.11c50.11-60.03,127.98-89.45,205.27-77.55"/>
    <path class="st1" d="M1077.61,494.7c-152.79-24.96-275.77-139-312.16-289.47"/>
    <path class="st61" d="M1080.3,511.26c-43.59,15.64-91.94,10.42-131.2-14.16"/>
    <path class="st45" d="M1080.88,512.43c-103.99,48.76-226.54,35.14-317.3-35.25"/>
    <path class="st45" d="M1226.07,1932.89c-29.9-35.46-38.94-84.04-23.78-127.87"/>
    <path class="st34" d="M909.05,770.97c-112.79-180.41-101.26-411.99,28.9-580.29"/>
    <path class="st45" d="M939.72,805.49c143.08,126.68,196.1,326.89,134.47,507.78"/>
    <path class="st58" d="M1102.25,1662.64c51.88,15.6,91.42,57.8,103.62,110.58"/>
    <path class="st24" d="M1101.21,1650.88c97.05-37.64,207.17-14.19,280.46,59.73"/>
    <path class="st17" d="M490.32,1092.32c-27.41-32.77-37.81-76.53-28.07-118.13"/>
    <path class="st45" d="M487.99,1095.03c-87.28-68.34-126.5-181.43-100.28-289.14"/>
    <path class="st15" d="M1672.08,969.99c-127.71-200.12-114.34-459.24,33.28-645.16"/>
    <path class="st1" d="M1677.59,996.31c-47.72,263.22-257.45,467.01-521.93,507.15"/>
    <path class="st1" d="M1682.51,967.84c24.95-124.44,123.75-220.78,248.78-242.59"/>
    <path class="st40" d="M1165.45,972.26c-30.19-24.34-49.92-59.32-55.12-97.75"/>
    <path class="st4" d="M1216.07,1031.6c15.1,54.1,4.68,112.13-28.31,157.59"/>
    <path class="st4" d="M1186.8,954.78c-60.14-192.02-1.64-401.44,149.3-534.5"/>
    <path class="st2" d="M1232.61,1019.36c129.88,115.74,178.4,297.68,123.41,462.73"/>
    <path class="st45" d="M1724.18,320.43c148.52,70.79,236.74,227.08,220.58,390.82"/>
    <path class="st28" d="M1448.16,787.96c-81.9-198.17-34.51-426.25,119.55-575.4"/>
    <path class="st30" d="M1437.5,830.36c-86.26,60.54-198.46,69.84-293.51,24.35"/>
    <path class="st58" d="M1432.66,820.67c-155.5,36.93-318.26-20.08-416.72-145.98"/>
    <path class="st15" d="M1655.44,1487.05c-45.22,19.69-97.58,13.09-136.5-17.22"/>
    <path class="st45" d="M1680.88,1466.61c45.62-50.44,115.54-71.27,181.33-54.03"/>
    <path class="st1" d="M1578.29,218.73c-25.77,91.36-100.38,160.68-193.38,179.69"/>
    <path class="st75" d="M950.62,169.97c49-101.4,155.13-162.42,267.42-153.75"/>
    <path class="st70" d="M280.18,1663.68c-113.03-105.97-147.79-271.29-87.01-413.81"/>
    <path class="st5" d="M1075.81,817.29c-45.72-31.14-74.82-81.37-79.08-136.52"/>
    <path class="st44" d="M769.42,1216.04c104.01-22.26,211.61,16.84,277.05,100.7"/>
    <path class="st75" d="M451.33,967.23c-116.32,104.45-284.27,128.16-424.95,59.97"/>
    <path class="st45" d="M1651.09,1175.08c16.57,111.33-34.95,221.8-130.89,280.66"/>
    <path class="st45" d="M1667.71,1159.35c111.37,31.55,193.78,125.64,210.4,240.19"/>
    <path class="st53" d="M681.43,314.57c98.34-1.34,189,53,234.17,140.37"/>
    <path class="st30" d="M681.2,318.59c153.36,29.12,274.99,146.16,309.98,298.28"/>
    <path class="st45" d="M679.24,324.39c37.34,23.3,61.2,63.12,64.15,107.03"/>
    <path class="st15" d="M1384.63,396.86c95.89-14.47,191.75,26.36,247.75,105.54"/>
    <path class="st58" d="M1347.48,428.42c-54.97,128.39-178.62,213.95-318.15,220.13"/>
    <path class="st32" d="M1948.95,1272.87c7.83,51.21-12.47,102.68-53.16,134.75"/>
    <path class="st9" d="M758.68,1676.91c17.96-154.75,126.51-283.86,275.87-328.14"/>
    <path class="st51" d="M768.63,1681.45c38.98-36.3,94.86-48.03,145.15-30.47"/>
    <path class="st28" d="M1751,1304.9c-38.61-109.66-6.4-231.78,81.28-308.12"/>
    <path class="st72" d="M1218.41,1776.07c37.92-47.73,99.33-70.27,159.12-58.38"/>
    <path class="st58" d="M616.48,1517.7c-74.93-330.28,66.54-671.9,353.03-852.52"/>
    <path class="st45" d="M769.71,203.53c40.7,73.64,36.71,163.87-10.35,233.63"/>
    <path class="st12" d="M949.55,496.5c34.64,30.12,53.8,74.29,52.13,120.16"/>
    <path class="st53" d="M901.88,492.09c-45.79,16.72-96.79,10.9-137.63-15.72"/>
  </g>
  <g id="nodes">
    <circle class="st89" cx="900.8" cy="1977.3" r="11.24"/>
    <circle class="st84" cx="1075.55" cy="1967.73" r="13.29"/>
    <circle class="st78" cx="1237.6" cy="1944.92" r="15.33" transform="translate(-790.17 3041.53) rotate(-85.93)"/>
    <circle class="st80" cx="1301.74" cy="1141.97" r="31.69"/>
    <circle class="st92" cx="1520.39" cy="995.24" r="15.33" transform="translate(186.12 2228.85) rotate(-75.96)"/>
    <circle class="st95" cx="863.39" cy="1080.57" r="39.87"/>
    <circle class="st100" cx="1061.69" cy="1091.17" r="37.82"/>
    <circle class="st90" cx="1245.93" cy="1355.76" r="23.51" transform="translate(-291.89 2368.43) rotate(-80.78)"/>
    <circle class="st83" cx="951.01" cy="1208.78" r="35.78"/>
    <circle class="st86" cx="1276.81" cy="823.68" r="19.42"/>
    <circle class="st93" cx="994.21" cy="952.21" r="46"/>
    <circle class="st100" cx="1200.66" cy="993.49" r="37.82"/>
    <circle class="st91" cx="1459.45" cy="813.34" r="25.56"/>
    <circle class="st78" cx="753.23" cy="1220.02" r="15.33"/>
    <circle class="st88" cx="1168.22" cy="1211.95" r="27.6"/>
    <circle class="st88" cx="1063.62" cy="1341.35" r="27.6"/>
    <circle class="st81" cx="859.67" cy="328.36" r="17.38"/>
    <circle class="st94" cx="1044.96" cy="342.65" r="31.69" transform="translate(688.94 1383.14) rotate(-89.27)"/>
    <circle class="st88" cx="1208.19" cy="338.58" r="27.6"/>
    <circle class="st85" cx="391.96" cy="435.5" r="9.2"/>
    <circle class="st99" cx="927.01" cy="480.26" r="25.56"/>
    <circle class="st96" cx="997.11" cy="648.55" r="29.64"/>
    <circle class="st81" cx="555.94" cy="483.2" r="17.38"/>
    <circle class="st89" cx="297.81" cy="563.25" r="11.24"/>
    <circle class="st81" cx="662.56" cy="315.52" r="17.38"/>
    <circle class="st91" cx="742.43" cy="459.18" r="25.56" transform="translate(170.25 1118.47) rotate(-80.78)"/>
    <circle class="st81" cx="426.63" cy="1777.91" r="17.38"/>
    <circle class="st89" cx="253.06" cy="1396.84" r="11.24"/>
    <circle class="st78" cx="606.99" cy="1717.5" r="15.33"/>
    <circle class="st85" cx="713.57" cy="1928.45" r="9.2"/>
    <circle class="st84" cx="1141.36" cy="1505.46" r="13.29"/>
    <circle class="st85" cx="172.71" cy="1545.8" r="9.2"/>
    <circle class="st89" cx="1410.74" cy="1312.22" r="11.24"/>
    <circle class="st89" cx="1351.99" cy="1493.62" r="11.24"/>
    <circle class="st92" cx="569.9" cy="1253.18" r="15.33"/>
    <circle class="st81" cx="307.93" cy="943.26" r="17.38"/>
    <circle class="st92" cx="700.16" cy="1380.2" r="15.33"/>
    <circle class="st81" cx="509.52" cy="1399.54" r="17.38"/>
    <circle class="st98" cx="1083.86" cy="1658.34" r="17.38"/>
    <circle class="st83" cx="816.28" cy="925.78" r="35.78"/>
    <circle class="st87" cx="680.51" cy="1070.66" r="29.64"/>
    <circle class="st78" cx="823.59" cy="620.74" r="15.33"/>
    <circle class="st88" cx="1154.17" cy="673.61" r="27.6"/>
    <circle class="st82" cx="966.11" cy="1471.31" r="33.73" transform="translate(-17.87 11.89) rotate(-.7)"/>
    <circle class="st100" cx="574.79" cy="781.85" r="37.82"/>
    <circle class="st86" cx="505.09" cy="1107.42" r="19.42"/>
    <circle class="st97" cx="1110.11" cy="835.62" r="35.78" transform="translate(145.11 1835.31) rotate(-82.98)"/>
    <circle class="st78" cx="742.18" cy="763.84" r="15.33"/>
    <circle class="st89" cx="1279.63" cy="179.23" r="11.24"/>
    <circle class="st86" cx="1550.06" cy="384.24" r="19.42"/>
    <circle class="st86" cx="1583.17" cy="198.19" r="19.42"/>
    <circle class="st85" cx="1265.61" cy="1627.41" r="9.2"/>
    <circle class="st85" cx="29.45" cy="1193.38" r="9.2"/>
    <circle class="st85" cx="60.81" cy="696.99" r="9.2"/>
    <circle class="st84" cx="1432.05" cy="256.38" r="13.29"/>
    <circle class="st98" cx="1557.53" cy="668.02" r="17.38"/>
    <circle class="st90" cx="1456.21" cy="537.92" r="23.51"/>
    <circle class="st80" cx="1266.69" cy="536.2" r="31.69"/>
    <circle class="st88" cx="1107.39" cy="498.38" r="27.6"/>
    <circle class="st91" cx="1357.43" cy="402.48" r="25.56"/>
    <circle class="st91" cx="471.32" cy="947.94" r="25.56"/>
    <circle class="st81" cx="392.79" cy="787.7" r="17.38"/>
    <circle class="st85" cx="202.98" cy="403.09" r="9.2"/>
    <circle class="st79" cx="450.61" cy="637.27" r="21.47"/>
    <circle class="st84" cx="335.15" cy="1111.62" r="13.29"/>
    <circle class="st89" cx="1745.22" cy="658.84" r="11.24"/>
    <circle class="st84" cx="1801.85" cy="815.81" r="13.29"/>
    <circle class="st85" cx="318" cy="275.39" r="9.2"/>
    <circle class="st85" cx="892.13" cy="14.89" r="9.2"/>
    <circle class="st84" cx="1459.65" cy="1150.65" r="13.29"/>
    <circle class="st91" cx="1356.36" cy="680.81" r="25.56"/>
    <circle class="st89" cx="1054.14" cy="12.27" r="11.24"/>
    <circle class="st89" cx="841.45" cy="1827.2" r="11.24"/>
    <circle class="st78" cx="1394.23" cy="1886.56" r="15.33"/>
    <circle class="st81" cx="1642.71" cy="518.21" r="17.38"/>
    <circle class="st89" cx="1797.63" cy="1567.05" r="11.24"/>
    <circle class="st86" cx="1647.2" cy="1154.33" r="19.42"/>
    <circle class="st84" cx="1756.14" cy="1318.4" r="13.29"/>
    <circle class="st79" cx="1813.17" cy="1156.92" r="21.47"/>
    <circle class="st89" cx="1979.11" cy="895.13" r="11.24"/>
    <circle class="st81" cx="1589.76" cy="1306.41" r="17.38"/>
    <circle class="st78" cx="1670.28" cy="1479.47" r="15.33"/>
    <circle class="st84" cx="1946.05" cy="1258.72" r="13.29"/>
    <circle class="st81" cx="1880.22" cy="1418.31" r="17.38"/>
    <circle class="st89" cx="1524.96" cy="1623.58" r="11.24"/>
    <circle class="st89" cx="1552.66" cy="1804.58" r="11.24"/>
    <circle class="st89" cx="1680.43" cy="1689.52" r="11.24"/>
    <circle class="st89" cx="1631.83" cy="820.87" r="11.24"/>
    <circle class="st90" cx="863.67" cy="1351.97" r="23.51"/>
    <circle class="st79" cx="921.87" cy="790.46" r="21.47"/>
    <circle class="st78" cx="757.11" cy="1693.5" r="15.33"/>
    <circle class="st89" cx="632.31" cy="927.75" r="11.24"/>
    <circle class="st89" cx="240.92" cy="719.18" r="11.24"/>
    <circle class="st84" cx="791.51" cy="1531.02" r="13.29"/>
    <circle class="st78" cx="171.97" cy="868.29" r="15.33"/>
    <circle class="st89" cx="15.47" cy="1021.7" r="11.24"/>
    <circle class="st81" cx="648.29" cy="613.04" r="17.38"/>
    <circle class="st84" cx="1362.34" cy="962.45" r="13.29"/>
    <circle class="st84" cx="762.32" cy="191.12" r="13.29"/>
    <circle class="st85" cx="1985.06" cy="1081.02" r="9.2"/>
    <circle class="st89" cx="1841.67" cy="988.95" r="11.24"/>
    <circle class="st78" cx="1208.72" cy="1789.64" r="15.33"/>
    <circle class="st84" cx="1391.56" cy="1721.14" r="13.29"/>
    <circle class="st85" cx="562.5" cy="1874.52" r="9.2"/>
    <circle class="st89" cx="619.28" cy="1529.6" r="11.24"/>
    <circle class="st85" cx="1112.31" cy="171.33" r="9.2"/>
    <circle class="st84" cx="121.86" cy="549.2" r="13.29"/>
    <circle class="st84" cx="169.8" cy="1064.32" r="13.29"/>
    <circle class="st85" cx="441.47" cy="163.71" r="9.2"/>
    <circle class="st89" cx="12.62" cy="855.03" r="11.24"/>
    <circle class="st85" cx="1799.13" cy="440.96" r="9.2"/>
    <circle class="st78" cx="381.76" cy="1276.92" r="15.33"/>
    <circle class="st85" cx="1019.3" cy="1816.04" r="9.2" transform="translate(-805.94 2818.79) rotate(-89.48)"/>
    <circle class="st85" cx="466.32" cy="1611.39" r="9.2"/>
    <circle class="st85" cx="593.89" cy="109.71" r="9.2"/>
    <circle class="st89" cx="289.23" cy="1671.89" r="11.24"/>
    <circle class="st89" cx="198.15" cy="1238.7" r="11.24"/>
    <circle class="st78" cx="1415.94" cy="91.26" r="15.33"/>
    <circle class="st85" cx="1886.5" cy="565.62" r="9.2"/>
    <circle class="st85" cx="738.14" cy="28.8" r="9.2" transform="translate(591.48 752.8) rotate(-80.78)"/>
    <circle class="st89" cx="1230.2" cy="17.43" r="11.24"/>
    <circle class="st89" cx="925.13" cy="1655.5" r="11.24"/>
    <circle class="st85" cx="510.07" cy="312.2" r="9.2"/>
    <circle class="st85" cx="362.44" cy="1499.43" r="9.2"/>
    <circle class="st85" cx="80.26" cy="1373.36" r="9.2"/>
    <circle class="st89" cx="945.55" cy="181.09" r="11.24"/>
    <circle class="st84" cx="1680.01" cy="982.06" r="13.29"/>
    <circle class="st89" cx="1713.06" cy="315.35" r="11.24"/>
    <circle class="st89" cx="1943.37" cy="723.39" r="11.24"/>
    <circle class="st89" cx="1509.65" cy="1461.9" r="11.24"/>
  </g>
  <text class="st101" transform="translate(1390.74 1069.75)"><tspan x="0" y="0">Sulfuricaulis</tspan></text>
  <text class="st101" transform="translate(609.75 1167.07)"><tspan x="0" y="0">Rhizomicrobium</tspan></text>
  <text class="st101" transform="translate(959.65 1174.48)"><tspan x="0" y="0">JACPRB01</tspan></text>
  <text class="st101" transform="translate(906.86 1034.46)"><tspan x="0" y="0">BP-133</tspan></text>
  <text class="st101" transform="translate(1105.3 1074.8)"><tspan x="0" y="0">JACRMM01</tspan></text>
  <text class="st101" transform="translate(915.32 417.17)"><tspan x="0" y="0">Sulfuricaulis</tspan></text>
  <text class="st101" transform="translate(813.38 554.78)"><tspan x="0" y="0">Gallionella</tspan></text>
  <text class="st101" transform="translate(906.07 722.86)"><tspan x="0" y="0">SPCO01</tspan></text>
  <text class="st101" transform="translate(464.23 1327.5)"><tspan x="0" y="0">UBA5619</tspan></text>
  <text class="st101" transform="translate(595.37 1454.52)"><tspan x="0" y="0">UBA6911</tspan></text>
  <text class="st101" transform="translate(914.31 1732.85)"><tspan x="0" y="0">Geoanaerobacter</tspan></text>
  <text class="st101" transform="translate(446.46 856.16)"><tspan x="0" y="0">DASYVL01</tspan></text>
  <text class="st101" transform="translate(1027.44 912.94)"><tspan x="0" y="0">UBA5189</tspan></text>
  <text class="st101" transform="translate(1443.9 742.54)"><tspan x="0" y="0">Gallionella</tspan></text>
</svg>